Coordinates
version=1
nRows=8
nColumns=63
inDegrees=yes

Units are S.I. units (second, meters, Newtons, ...)
If the header above contains a line with 'inDegrees', this indicates whether rotational values are in degrees (yes) or radians (no).

endheader
time	pelvis_tilt	pelvis_list	pelvis_rotation	pelvis_tx	pelvis_ty	pelvis_tz	hip_flexion_r	hip_adduction_r	hip_rotation_r	knee_angle_r	knee_angle_r_beta	ankle_angle_r	subtalar_angle_r	mtp_angle_r	hip_flexion_l	hip_adduction_l	hip_rotation_l	knee_angle_l	knee_angle_l_beta	ankle_angle_l	subtalar_angle_l	mtp_angle_l	L5_S1_Flex_Ext	L5_S1_Lat_Bending	L5_S1_axial_rotation	L4_L5_Flex_Ext	L4_L5_Lat_Bending	L4_L5_axial_rotation	L3_L4_Flex_Ext	L3_L4_Lat_Bending	L3_L4_axial_rotation	L2_L3_Flex_Ext	L2_L3_Lat_Bending	L2_L3_axial_rotation	L1_L2_Flex_Ext	L1_L2_Lat_Bending	L1_L2_axial_rotation	L1_T12_Flex_Ext	L1_T12_Lat_Bending	L1_T12_axial_rotation	Abs_r3	Abs_r2	Abs_r1	Abs_t1	Abs_t2	neck_flexion	neck_bending	neck_rotation	arm_flex_r	arm_add_r	arm_rot_r	elbow_flex_r	pro_sup_r	wrist_flex_r	wrist_dev_r	arm_flex_l	arm_add_l	arm_rot_l	elbow_flex_l	pro_sup_l	wrist_flex_l	wrist_dev_l
      0.53333333	      8.61336354	     -1.55509901	     94.34101473	      0.10486309	      0.81992600	      0.81056002	      6.24795097	      3.37330062	     -3.07555151	     11.08376134	      0.19344813	     32.03756277	     13.95619841	      0.00000000	      4.93884366	     -3.53017553	     22.73866851	      6.14734519	      0.10729141	     28.95348514	    -16.27901094	      0.00000000	      0.20898463	      0.85799551	     -0.01837190	      0.38810536	      1.14113402	     -0.01952015	      0.34334085	      2.08613027	     -0.01952015	      0.23884854	      2.08613027	     -0.01607542	      0.19406313	      1.74962444	     -0.01492717	      0.11941382	      1.32903504	     -0.01377893	      1.49275634	      9.70581676	     -0.10217902	      0.00000000	      0.00000000	     15.17797224	     -1.34270628	     13.62290844	     20.86957898	    -11.32268391	     67.10865247	     32.06577556	     53.67686243	     -7.26095213	     -4.96443939	     19.83309243	     -8.82072921	     66.74019870	     36.58755183	     63.41355803	     -8.00047703	     -7.65784770
      0.55000000	      8.95589091	     -1.25851402	     94.00290951	      0.10291268	      0.82037655	      0.80917019	      5.99081258	      3.61041560	     -3.02444380	     11.42148728	      0.19934256	     31.84889323	     14.09522795	      0.00000000	      4.33596293	     -3.86578754	     22.42909416	      5.70034053	      0.09948971	     28.64455702	    -16.54199549	      0.00000000	      0.18341888	      0.94776255	      0.10240095	      0.34062720	      1.26052419	      0.10880101	      0.30133887	      2.30438986	      0.10880101	      0.20962944	      2.30438986	      0.08960083	      0.17032277	      1.93267739	      0.08320077	      0.10480555	      1.46808419	      0.07680071	      1.31014270	     10.72127952	      0.56952337	      0.00000000	      0.00000000	     15.23155700	     -2.10000878	     14.41597422	     20.01320703	    -12.10221884	     65.41673449	     29.99798710	     53.85699393	     -9.45092777	     -7.23638088	     20.80853860	     -8.88024789	     69.04697812	     35.46023332	     65.81254920	     -6.59210898	     -5.06694151
      0.56666667	      9.25904446	     -0.92285406	     93.43257021	      0.10155936	      0.82096756	      0.80709816	      5.59680947	      3.86466441	     -2.59106579	     11.59225526	      0.20232302	     31.63686810	     14.13317019	      0.00000000	      3.59226001	     -4.17454561	     22.13865388	      5.33256354	      0.09307079	     28.18735395	    -16.95905593	      0.00000000	      0.15749217	      1.01626946	      0.29199176	      0.29247870	      1.35163839	      0.31024124	      0.25874388	      2.47095758	      0.31024124	      0.17999780	      2.47095758	      0.25549279	      0.14624722	      2.07237669	      0.23724330	      0.08999102	      1.57420140	      0.21899382	      1.12495079	     11.49624344	      1.62397056	      0.00000000	      0.00000000	     15.32910180	     -2.66509934	     13.99426242	     18.02196144	    -12.92900265	     57.97590385	     29.08906074	     61.82740339	    -10.85291194	     -6.63896122	     20.25663365	     -8.83468669	     65.56086853	     34.50650133	     75.58973876	     -3.43548969	     -1.19692885
      0.58333333	      9.51155843	     -0.46020405	     92.94384415	      0.10035578	      0.82201386	      0.80445413	      4.93860786	      4.10050616	     -2.11428310	     11.53548204	      0.20133214	     31.34310048	     14.07190863	      0.00000000	      2.68435494	     -4.42650479	     22.07956225	      5.07380320	      0.08855457	     27.67712684	    -17.23865506	      0.00000000	      0.12776716	      1.07424166	      0.43085378	      0.23727639	      1.42874141	      0.45778214	      0.20990866	      2.61191118	      0.45778214	      0.14602508	      2.61191118	      0.37699706	      0.11864458	      2.19059360	      0.35006869	      0.07300615	      1.66400034	      0.32314033	      0.91262802	     12.15203655	      2.39627945	      0.00000000	      0.00000000	     14.97222936	     -3.12082052	     13.87093767	     16.62050803	    -13.90603955	     52.92961211	     28.52665997	     68.56946797	    -12.05662215	     -5.99132830	     19.56296075	     -8.98967256	     63.48322176	     33.40002401	     79.65865465	     -1.69344288	      0.61669157
      0.60000000	      9.61238054	      0.07075659	     92.25127641	      0.09980146	      0.82347046	      0.80121855	      4.14764560	      4.23559253	     -1.21872946	     11.38775183	      0.19875376	     30.99320893	     13.71840808	      0.00000000	      1.60761131	     -4.52922726	     22.03298789	      4.83714394	      0.08442409	     27.06714831	    -17.57922660	      0.00000000	      0.09804211	      1.10450685	      0.57239250	      0.18207401	      1.46899410	      0.60816703	      0.16107339	      2.68549794	      0.60816703	      0.11205233	      2.68549794	      0.50084344	      0.09104191	      2.25231036	      0.46506891	      0.05602126	      1.71088110	      0.42929437	      0.70030501	     12.49440233	      3.18347536	      0.00000000	      0.00000000	     14.13466859	     -3.45966681	     13.52457701	     15.67939002	    -14.99900374	     50.44943779	     28.15283246	     73.15001905	    -13.15102289	     -5.03986909	     18.12297622	     -9.27578243	     60.60065285	     32.44288469	     81.70706422	     -1.88073050	      1.25647463
      0.61666667	      9.59064169	      0.73101880	     91.63425018	      0.09946937	      0.82535063	      0.79726432	      3.11014981	      4.22338944	     -0.66258158	     11.09879344	      0.19371049	     30.66310418	     13.77082320	      0.00000000	      0.28257120	     -4.52925501	     22.05960163	      4.43714405	      0.07744277	     26.39291966	    -17.75265814	      0.00000000	      0.06795785	      1.10746685	      0.69105371	      0.12620453	      1.47293092	      0.73424457	      0.11164796	      2.69269491	      0.73424457	      0.07766903	      2.69269491	      0.60467200	      0.06310566	      2.25834641	      0.56148114	      0.03883112	      1.71546616	      0.51829028	      0.48541614	     12.52788655	      3.84343344	      0.00000000	      0.00000000	     12.82429250	     -3.60667949	     12.63795380	     15.11094800	    -16.07640431	     50.40892496	     27.36263520	     74.49837669	    -13.55781634	     -4.44755744	     16.30819700	     -9.62143468	     57.94312555	     31.56072071	     81.27202422	     -3.90684943	      0.76882420
      0.63333333	      9.46887789	      1.35824955	     90.86024726	      0.09970432	      0.82726200	      0.79292096	      2.09738587	      4.12666965	      0.20128392	     10.81246538	      0.18871312	     30.40562188	     13.63320243	      0.00000000	     -1.03840108	     -4.42227705	     21.94689268	      4.02286052	      0.07021216	     25.74643578	    -17.96955631	      0.00000000	      0.04427759	      1.09299258	      0.81854243	      0.08222792	      1.45368013	      0.86970134	      0.07274366	      2.65750215	      0.86970134	      0.05060486	      2.65750215	      0.71622463	      0.04111617	      2.22883046	      0.66506573	      0.02530022	      1.69304550	      0.61390683	      0.31627043	     12.36415061	      4.55248746	      0.00000000	      0.00000000	     11.36567846	     -3.68110364	     11.79396205	     14.53875206	    -17.01795640	     50.71610649	     26.40250710	     75.63342440	    -13.61826208	     -3.38226593	     14.05409494	    -10.00081088	     54.42723114	     31.12486531	     80.62005883	     -6.84957542	     -0.07049398
      0.65000000	      9.40849430	      1.89586522	     90.16599931	      0.10004636	      0.82895215	      0.78854702	      1.14316408	      4.22685247	      2.53576289	     10.44937293	      0.18237596	     29.92278807	     11.29902233	      0.00000000	     -2.17970748	     -4.35780705	     21.65387524	      3.69324752	      0.06445933	     25.36979666	    -18.00234959	      0.00000000	      0.02682816	      1.08813668	      0.87446004	      0.04982258	      1.44722178	      0.92911379	      0.04407598	      2.64569552	      0.92911379	      0.03066190	      2.64569552	      0.76515253	      0.02491263	      2.21892831	      0.71049878	      0.01532961	      1.68552371	      0.65584503	      0.19163086	     12.30921973	      4.86348438	      0.00000000	      0.00000000	      9.97477457	     -3.79412769	     11.82104495	     14.10567899	    -17.80467995	     51.53416746	     25.15951692	     76.50472920	    -13.16702275	     -2.24069826	     11.27354785	    -10.14767706	     48.31888445	     31.18940906	     83.02405955	     -9.24043743	     -0.01078888
